# xmcd
#
# Track frame offsets:
#	150
#	12940
#	31663
#	48841
#	70665
#	93051
#	114402
#	131252
#	155510
#	176774
#	197306
#	210206
#	229405
#
# Disc length: 3311 seconds
#
# Revision: 0
# Processed by: cddbd v1.5.2PL0 Copyright (c) Steve Scherf et al.
# Submitted via: EZCDAudioConverter 1.3.4.1
#
DISCID=930ced0d
DTITLE=Kem - Promise To Love Deluxe Edition 
DYEAR=2014
DGENRE=R&B
TTITLE0=Saving My Love For You
TTITLE1=Promise To Love
TTITLE2=Downtown Ft Snoop Dogg
TTITLE3=Beautiful World
TTITLE4=Do What You Gotta Do
TTITLE5=Say Something Real
TTITLE6=My Favourite Thing Ft Ronald Isley
TTITLE7=It's You
TTITLE8=The Soft Side Of Love
TTITLE9=Nobody
TTITLE10=Pray For Me
TTITLE11=Moments
TTITLE12=Don't Say Goodbye - Introducing L'Renee
EXTD=
EXTT0=
EXTT1=
EXTT2=
EXTT3=
EXTT4=
EXTT5=
EXTT6=
EXTT7=
EXTT8=
EXTT9=
EXTT10=
EXTT11=
EXTT12=
PLAYORDER=
